HIERARCHY
ROOT simHips
{
  OFFSET 0.730076 95.1417 -1.42082
  CHANNELS 6 Xposition Yposition Zposition Zrotation Xrotation Yrotation
  JOINT simSpine
  {
    OFFSET -0.000355721 21.3001 -0.016921
    CHANNELS 3 Zrotation Xrotation Yrotation
    JOINT simLeftArm
    {
      OFFSET 13.5181 21.3012 0
      CHANNELS 3 Zrotation Xrotation Yrotation
      JOINT simLeftForeArm
      {
        OFFSET 24.5783 0 0
        CHANNELS 3 Zrotation Xrotation Yrotation
        JOINT simLeftHand
        {
          OFFSET 24.5783 0 0
          CHANNELS 3 Zrotation Xrotation Yrotation
          End Site
          {
            OFFSET 7.32568 1.52588e-05 0.0169305
          }
        }
      }
    }
    JOINT simHead
    {
      OFFSET 0 27.4458 -0.00489235
      CHANNELS 3 Zrotation Xrotation Yrotation
      End Site
      {
        OFFSET 0 0 0
      }
    }
    JOINT simRightArm
    {
      OFFSET -13.5174 21.3012 0
      CHANNELS 3 Zrotation Xrotation Yrotation
      JOINT simRightForeArm
      {
        OFFSET -24.5783 0 0
        CHANNELS 3 Zrotation Xrotation Yrotation
        JOINT simRightHand
        {
          OFFSET -24.5783 0 0
          CHANNELS 3 Zrotation Xrotation Yrotation
          End Site
          {
            OFFSET -7.32568 1.52588e-05 0.0169305
          }
        }
      }
    }
  }
  JOINT simRightUpLeg
  {
    OFFSET -8.44614 -9.41038 0.835684
    CHANNELS 3 Zrotation Xrotation Yrotation
    JOINT simRightLeg
    {
      OFFSET 0 -40.9639 0
      CHANNELS 3 Zrotation Xrotation Yrotation
      JOINT simRightFoot
      {
        OFFSET 0 -40.9639 0
        CHANNELS 3 Zrotation Xrotation Yrotation
        End Site
        {
          OFFSET 0.50614 -9.67405 14.6709
        }
      }
    }
  }
  JOINT simLeftUpLeg
  {
    OFFSET 8.44614 -9.41038 0.835684
    CHANNELS 3 Zrotation Xrotation Yrotation
    JOINT simLeftLeg
    {
      OFFSET 0 -40.9639 0
      CHANNELS 3 Zrotation Xrotation Yrotation
      JOINT simLeftFoot
      {
        OFFSET 0 -40.9639 0
        CHANNELS 3 Zrotation Xrotation Yrotation
        End Site
        {
          OFFSET -0.50614 -9.67405 14.6709
        }
      }
    }
  }
}
MOTION
Frames:	28
Frame Time:	0.0333333
0.730076 95.1417 -1.42082 3.87656 9.51891 -42.8545 -0.388737 4.37991 3.76364 -64.4063 -8.01866 -12.4077 0.00926053 -6.71531e-06 -116.11 17.6876 22.164 -7.32288 -13.2772 9.38753 35.5647 54.4999 23.1925 62.8913 -0.000151607 -7.67691e-06 104.57 -15.8655 -15.3837 6.27221 -12.1366 -26.9682 -15.0805 -3.56125 51.0673 -5.39505 18.9829 -27.8215 1.02829 32.5044 -42.5628 30.0668 -1.5145 45.3865 -7.99451 -8.51126 -6.32328 -10.3482 
0.581876 95.1686 -1.75358 4.05974 9.13841 -43.3284 -0.387436 4.38927 3.73425 -64.0192 -8.87615 -13.4538 0.00926048 -6.80828e-06 -116.499 12.9041 24.1028 -7.07916 -13.2484 9.39814 36.1759 53.7218 22.8924 63.854 -0.000151617 -7.63635e-06 104.491 -16.3585 -16.1408 5.91064 -12.0185 -27.2075 -14.725 -4.14693 51.3328 -5.0181 18.949 -27.8743 1.24765 32.1849 -42.0626 29.7663 -1.4828 44.8596 -8.0002 -8.88168 -6.11965 -9.88174 
0.448982 95.3392 -2.14001 4.29727 8.68842 -44.3957 -0.397474 4.4052 3.69369 -63.4259 -9.89005 -15.1335 0.00926045 -6.87385e-06 -116.775 8.95137 24.4683 -6.42563 -13.3666 9.462 37.0417 52.7971 22.2313 64.938 -0.000151594 -7.72558e-06 104.664 -16.4524 -16.9965 5.506 -11.6932 -27.4664 -14.1377 -4.98192 51.1805 -3.91852 18.5718 -27.7384 1.12815 31.9185 -41.026 29.5466 -1.62831 43.8448 -7.77431 -9.32455 -5.78992 -9.07255 
0.354081 95.6866 -2.56184 4.55354 8.11009 -46.2103 -0.431514 4.40075 3.66959 -62.6578 -10.6767 -17.1736 0.00926046 -6.84545e-06 -116.655 8.83073 23.4352 -7.00637 -13.6084 9.61473 38.188 51.9405 21.0443 65.9415 -0.000151507 -8.05064e-06 105.296 -16.0059 -17.7789 4.96762 -11.1529 -27.6563 -13.3225 -6.07797 50.474 -2.20599 17.9297 -27.2522 0.88936 31.6587 -39.2548 29.3634 -1.95199 42.2113 -7.48918 -9.85366 -5.35925 -7.8092 
0.313972 96.2108 -2.98732 4.79032 7.36415 -48.9276 -0.46841 4.33777 3.63991 -61.61 -11.2899 -19.4358 0.00926048 -6.81589e-06 -116.531 12.078 22.1142 -8.44998 -14.1811 9.78637 39.7458 51.394 19.4321 66.6441 -0.000151338 -8.64427e-06 106.455 -15.0921 -18.2807 4.4084 -10.4908 -27.7188 -12.387 -7.27433 49.1632 0.212031 16.9469 -26.3831 0.509008 31.3016 -36.64 29.0546 -2.34576 39.9122 -7.41521 -10.546 -4.94575 -5.84997 
0.317819 96.8612 -3.36145 5.03885 6.53748 -52.5974 -0.485518 4.23224 3.56532 -60.4841 -12.2576 -22.1074 0.00926042 -6.94054e-06 -117.056 15.6437 21.4806 -9.25174 -15.362 9.67407 41.7415 51.2117 17.5359 67.0376 -0.00015109 -9.44502e-06 108.029 -13.9177 -18.3667 4.03634 -9.80567 -27.7556 -11.4182 -8.29949 47.3411 2.58122 15.9166 -24.9925 0.685539 30.776 -33.3849 28.5421 -2.62377 37.133 -7.35485 -11.4671 -4.68592 -3.01017 
0.350725 97.5399 -3.63347 5.33129 5.7663 -57.1256 -0.48659 4.13764 3.43605 -59.8889 -13.6434 -25.3639 0.00926026 -7.23017e-06 -118.284 17.6781 21.904 -9.40796 -16.9871 8.98953 43.9141 51.3208 15.2982 67.2189 -0.000150771 -1.03718e-05 109.869 -12.7352 -18.0203 3.83665 -9.12008 -27.934 -10.4033 -8.95791 45.242 2.87747 15.6457 -22.7413 3.44846 30.1108 -29.9685 27.9255 -2.66221 34.422 -6.3697 -12.5491 -4.6377 0.718765 
0.379719 98.137 -3.8301 5.64595 5.06199 -62.3494 -0.509156 4.06633 3.2432 -60.2477 -14.9071 -29.2121 0.00926007 -7.58625e-06 -119.813 18.0192 22.9744 -9.67835 -18.6078 7.84397 45.9619 51.8774 12.7742 67.0336 -0.000150368 -1.14257e-05 111.987 -11.6282 -17.32 3.5622 -8.18421 -28.3709 -9.23198 -9.72839 43.1571 3.49164 15.3025 -20.4528 6.43334 29.5744 -26.1884 27.4041 -2.37073 31.5444 -3.47006 -14.2085 -4.30935 0.9553 
0.450775 98.5049 -3.92541 5.92511 4.43536 -68.0811 -0.486917 4.02189 2.97148 -61.5401 -15.6214 -33.6103 0.00925985 -7.94355e-06 -121.372 16.3058 23.8956 -9.82749 -20.0563 6.51104 47.7686 53.0877 10.1629 66.1732 -0.000149863 -1.26052e-05 114.396 -10.426 -16.4625 3.11736 -7.06787 -29.2241 -7.92444 -10.5442 41.6117 4.4281 14.9263 -18.4014 9.56893 29.2523 -22.8869 27.3204 -1.99515 30.0088 1.16576 -15.8166 -4.18915 0.896803 
0.582574 98.5454 -3.93388 6.18209 3.91092 -74.0608 -0.353815 4.06238 2.57667 -63.4476 -15.4747 -38.3969 -0.000124494 -8.25236e-06 -122.74 13.4619 23.4562 -9.81434 -21.3838 5.06331 49.2634 54.6764 7.38145 64.7252 -0.000149343 -1.36933e-05 116.66 -9.08682 -15.7565 2.75547 -5.9765 -30.6938 -6.66721 -11.1108 41.1237 5.69018 14.356 -16.8638 12.6832 29.4097 -20.3288 27.966 -1.64378 30.2631 5.97793 -17.3874 -4.63512 0.738782 
0.796035 98.2124 -3.85025 6.43474 3.50739 -80.0481 -0.101942 4.25987 1.99269 -65.3815 -14.0547 -43.0218 0.000394188 -8.43109e-06 -123.541 13.1311 20.6903 -11.359 -22.5463 3.50305 50.4455 56.0696 4.54506 63.082 -0.000148999 -1.4358e-05 118.066 -8.01749 -15.4854 2.79563 -4.996 -32.8637 -5.5989 -11.3513 41.9161 7.42326 13.4903 -15.9747 15.5325 30.2032 -19.2234 29.3277 -1.20028 33.379 9.60105 -17.4147 -6.41126 0.431565 
1.06809 97.5198 -3.64646 6.66066 3.18864 -85.982 0.202268 4.61337 1.14371 -66.8159 -11.5937 -46.9262 0.000394164 -8.46623e-06 -123.7 16.0392 16.8497 -14.1973 -23.5648 2.00579 51.5647 56.9115 2.73385 60.9635 -0.000148922 -1.45025e-05 118.374 -7.70504 -15.6939 3.29085 -3.91071 -35.5791 -4.5773 -11.6832 43.769 10.0283 12.424 -15.6873 17.8342 31.2217 -18.8709 30.7948 -0.431827 37.9166 10.4124 -17.356 -9.43147 2.50199 
1.30161 96.5236 -3.28953 6.84584 2.89602 -91.9418 0.488908 5.04833 0.0236601 -68.402 -8.99833 -50.0055 0.000394187 -8.43269e-06 -123.549 17.7632 14.8483 -16.0278 -24.3264 1.36657 52.4917 57.1349 3.13848 57.4295 -0.000149061 -1.42418e-05 117.819 -8.14638 -16.0671 4.01412 -2.42583 -38.5865 -3.31176 -12.5863 46.2896 13.7625 11.3167 -15.8637 19.4622 32.1495 -18.5268 31.9665 0.515808 42.6887 9.74614 -18.3066 -12.9536 6.37198 
1.37391 95.3001 -2.77549 7.01377 2.60599 -97.887 0.727898 5.49031 -1.2265 -71.0486 -6.4746 -51.9806 0.000394202 -8.40948e-06 -123.444 16.5445 14.9722 -16.468 -24.7452 2.02326 52.8939 56.9156 5.68415 51.9624 -0.000149395 -1.35892e-05 116.442 -8.85012 -16.0505 4.60896 -0.525377 -41.6852 -1.65893 -13.9992 49.2204 17.0736 10.5501 -16.1523 21.8324 32.9362 -17.873 33.0502 1.52377 47.3673 8.87972 -19.921 -16.7062 9.39702 
1.2479 93.8938 -2.1169 7.14529 2.36611 -103.503 0.926836 5.90641 -2.39081 -74.5039 -3.51535 -52.3843 0.000394184 -8.43631e-06 -123.565 15.0337 15.6513 -16.1814 -24.8723 3.74122 52.6768 56.5916 9.1877 44.7198 -0.00030257 -1.23387e-05 113.848 -9.27711 -15.2013 4.85892 1.64368 -44.7031 0.343435 -15.7401 52.4639 18.5533 10.4806 -16.3786 25.9714 33.7787 -17.0329 34.4555 2.36728 52.0601 7.98983 -21.6337 -20.5459 11.6256 
0.966796 92.348 -1.33923 7.14781 2.20913 -108.32 1.09207 6.29624 -3.3626 -78.2036 0.00999963 -51.2012 0.000394178 -8.44596e-06 -123.608 15.5837 16.0503 -16.4132 -24.7426 6.31202 51.8885 56.5374 12.6363 36.0364 -0.0586988 -1.01703e-05 109.467 -9.12696 -13.6463 4.97996 3.81489 -47.3713 2.43149 -17.9717 55.8097 20.6038 10.5893 -16.9844 29.3106 34.7281 -16.5372 36.217 3.3449 57.1595 7.04967 -22.1263 -24.1026 13.2554 
0.577935 90.7362 -0.465916 6.9434 2.12115 -111.929 1.24916 6.66004 -4.18628 -82.1178 3.72377 -48.9489 0.000394205 -8.40424e-06 -123.421 18.0589 16.2166 -17.2244 -24.4958 9.31937 50.5926 57.0555 15.2765 26.2922 0.000305953 -6.84333e-06 102.958 -8.36658 -12.2555 5.46015 5.30638 -49.6998 4.02479 -20.5664 59.2335 23.2438 10.8578 -17.9257 31.52 35.4143 -16.4264 37.7742 5.0807 62.1556 5.31345 -21.8986 -27.3622 14.4632 
0.102265 89.1581 0.486656 6.52016 2.11561 -114.044 1.43094 6.97197 -4.89133 -85.8185 6.96856 -45.6189 0.000394177 -8.44725e-06 -123.614 21.4856 16.4108 -17.3447 -24.3453 12.2397 48.6926 58.8219 15.9211 15.8908 0.000244242 -2.4794e-06 94.6601 -7.07869 -12.0726 6.52728 5.5321 -51.5821 4.709 -23.0759 62.6391 26.7453 10.9905 -19.3303 31.8802 35.5491 -16.7202 38.6421 8.11722 66.5829 2.35907 -21.682 -30.3805 15.0623 
-0.415878 87.717 1.50476 5.89279 2.20831 -114.382 1.64747 7.16528 -5.41495 -88.0382 8.37634 -40.9754 0.000394012 -8.69074e-06 -124.719 23.7289 16.7909 -16.6137 -24.61 14.6701 46.1481 61.4525 12.631 5.06712 0.000244213 2.09989e-06 86.0544 -5.24696 -13.5044 8.06157 4.31188 -52.8219 4.41532 -25.7088 65.6656 29.7447 11.7646 -20.8682 32.541 35.2026 -17.3474 38.7129 12.3798 70.1511 -1.7954 -22.0359 -33.1851 14.4721 
-0.870991 86.4944 2.53734 5.07768 2.3579 -112.58 1.88478 7.16831 -5.69211 -87.3597 6.36781 -36.0106 0.000393764 -9.03824e-06 -126.323 22.4799 17.8748 -15.6819 -25.4247 16.4159 43.026 63.3241 4.42501 -5.96976 0.000244746 6.0497e-06 78.5661 -2.75429 -16.5277 10.128 1.58257 -53.2485 3.10286 -28.5723 68.1752 31.9416 13.5039 -22.4952 33.7063 34.6901 -18.5806 38.1031 17.4082 73.0243 -6.83036 -22.2091 -35.5036 12.8127 
-1.17544 85.5648 3.49527 4.15628 2.57556 -108.343 2.12105 6.96151 -5.73541 -82.6903 0.570506 -32.5978 0.000393571 -9.29525e-06 -127.53 18.4669 19.2327 -14.0038 -25.9014 17.8716 38.8762 62.5892 -7.10673 -17.2678 0.000245569 9.22597e-06 72.4032 0.463355 -21.6496 13.1466 -2.2614 -52.4955 0.876884 -31.3304 70.0943 34.7423 15.3409 -24.7654 31.738 34.2414 -21.0271 36.842 23.2704 75.5528 -11.8061 -21.0682 -36.5897 10.0962 
-1.37303 84.9983 4.32836 3.33758 3.09617 -101.776 2.38268 6.57821 -5.62717 -73.7838 -7.69112 -31.1118 0.000393532 -9.34524e-06 -127.767 15.3275 18.0607 -11.2213 -25.0605 18.7694 33.8449 59.0346 -17.6479 -28.894 0.000246582 1.19614e-05 66.924 4.50032 -29.6159 17.4425 -6.54924 -50.3254 -2.13205 -33.0442 71.1879 36.7822 17.2839 -27.5114 28.4775 34.2964 -24.5965 34.6569 29.9479 77.5294 -17.5047 -21.0077 -35.6925 5.44455 
-1.64677 84.8973 5.04353 2.80848 4.25751 -93.4744 2.72785 6.04544 -5.45011 -61.6481 -17.1449 -29.4026 0.000393582 -9.28061e-06 -127.46 13.5622 12.4891 -8.4821 -22.7662 18.2963 28.3955 54.8823 -23.6344 -39.3673 0.000247781 1.44538e-05 61.7303 10.0082 -39.5443 23.2866 -10.3005 -47.0685 -5.74743 -31.482 72.5969 34.9594 16.0799 -31.7217 23.8309 35.1225 -28.7565 31.7947 35.4621 78.3614 -23.2401 -22.9337 -32.8992 -0.940996 
-2.15958 85.4816 5.80463 2.51604 6.14927 -83.8518 3.1651 5.34653 -5.17626 -47.2373 -25.6477 -23.6598 0.000393573 -9.2925e-06 -127.517 13.5277 2.92403 -8.23623 -19.7383 16.2672 22.7401 51.9546 -25.8262 -46.7198 0.000249044 1.65899e-05 57.0698 18.4844 -48.2534 31.4231 -13.7489 -42.3349 -9.85563 -22.7827 72.2404 26.9821 16.2893 -33.4068 18.4613 35.6553 -33.0207 29.0581 35.8579 77.4765 -24.6852 -23.2343 -31.2441 -5.8185 
-2.97914 87.0314 6.77927 2.21776 8.6014 -72.5695 3.66022 4.46021 -4.59843 -33.7763 -28.5002 -13.1203 0.000393389 -9.5274e-06 -128.637 16.133 -7.33754 -10.6436 -16.0817 13.5198 16.4684 49.0434 -27.2881 -50.8804 0.000250339 1.84364e-05 52.8342 31.0128 -52.6196 42.826 -15.4692 -35.6355 -13.0856 -10.7343 68.7102 16.1723 16.21 -34.4736 12.2275 35.6409 -37.3034 26.6217 30.8594 74.643 -21.6522 -21.8758 -29.5153 -9.85447 
-3.97093 89.5191 8.08852 1.82756 11.2253 -59.1154 3.88392 3.47177 -3.51634 -29.3822 -24.2986 -4.59462 0.000392967 -1.00321e-05 -131.107 18.8419 -12.5369 -10.7798 -10.8175 9.87756 9.47295 45.3047 -28.9179 -52.2045 0.00025177 2.0186e-05 48.5891 46.2421 -53.2009 57.5952 -14.5042 -28.111 -13.6947 -3.84422 61.5709 10.9191 15.4351 -32.9569 5.29841 34.1952 -41.9148 23.9818 23.3223 69.7694 -17.433 -18.188 -26.8516 -13.1567 
-4.71849 92.2197 9.58196 1.7054 13.8633 -43.7373 3.47741 2.60731 -1.89399 -36.745 -17.973 -2.43146 0.000392449 -1.05961e-05 -133.982 17.3365 -8.72365 -7.22054 -3.80087 3.19395 3.11734 42.5417 -28.2255 -50.1583 0.0002526 2.10895e-05 46.2859 62.9321 -54.4902 75.7508 -11.1934 -21.3841 -11.4942 -4.3177 53.2039 11.0104 16.8412 -30.8558 0.990655 30.27 -47.5744 20.4467 16.2925 63.8145 -15.3326 -12.3652 -22.9929 -15.2266 
-4.65467 94.5532 10.9811 2.146 16.714 -27.803 2.52426 2.10741 0.25825 -50.2472 -12.4659 -4.22845 0.00039221 -1.08392e-05 -135.264 13.0197 -1.28784 -11.0565 3.23485 -5.45222 -0.574642 39.1537 -22.9642 -44.9931 0.000251516 1.98937e-05 49.3168 83.8322 -58.4278 100.479 -7.98724 -16.7715 -9.28541 -7.23052 46.2866 7.13682 21.2941 -28.2058 2.0098 22.1277 -53.7237 15.0429 10.4378 57.4641 -14.5899 -5.57769 -17.801 -16.1165 
